<?xml version="1.0" standalone="no"?>
<!DOCTYPE svg PUBLIC "-//W3C//DTD SVG 20010904//EN"
 "http://www.w3.org/TR/2001/REC-SVG-20010904/DTD/svg10.dtd">
<svg version="1.0" xmlns="http://www.w3.org/2000/svg"
 width="468.000000pt" height="468.000000pt" viewBox="0 0 468.000000 468.000000"
 preserveAspectRatio="xMidYMid meet">
<metadata>
Created by potrace 1.11, written by Peter Selinger 2001-2013
</metadata>
<g transform="translate(0.000000,468.000000) scale(0.100000,-0.100000)"
fill="#000000" stroke="none">
<path d="M370 3642 l0 -238 -182 1 -183 0 -1 -907 c0 -812 2 -907 15 -910 9
-2 91 -3 184 -2 l167 1 0 -164 0 -163 1455 0 1455 0 323 -229 c177 -126 325
-227 329 -225 3 2 6 89 7 192 0 103 0 204 0 225 l1 37 359 0 c278 0 360 3 363
13 3 10 2 1773 -1 1800 -1 4 -83 7 -184 7 l-182 0 0 163 0 162 -1638 0 -1638
0 -290 215 c-160 118 -306 225 -325 238 l-34 22 0 -238z"/>
</g>
</svg>
