<?xml version="1.0" encoding="utf-8"?>
<!-- Generator: Adobe Illustrator 16.0.4, SVG Export Plug-In . SVG Version: 6.00 Build 0)  -->
<!DOCTYPE svg PUBLIC "-//W3C//DTD SVG 1.1//EN" "http://www.w3.org/Graphics/SVG/1.1/DTD/svg11.dtd">
<svg version="1.1" xmlns="http://www.w3.org/2000/svg" xmlns:xlink="http://www.w3.org/1999/xlink" x="0px" y="0px" width="108px"
	 height="108px" viewBox="0 0 108 108" enable-background="new 0 0 108 108" xml:space="preserve">
<g id="Layer_1">
</g>
<g id="Layer_2">
	<g>
		<circle fill="#EBF3F3" stroke="#000000" stroke-miterlimit="10" cx="54" cy="54" r="53"/>
		<g>
			<circle fill="#FFFFFF" cx="52.518" cy="51.872" r="18.446"/>
			<path fill="#E73141" d="M52.439,31.067c-11.497,0-20.817,9.319-20.817,20.816c0,11.496,9.32,20.818,20.817,20.818
				c11.497,0,20.816-9.322,20.816-20.818C73.256,40.386,63.937,31.067,52.439,31.067z M52.439,68.193
				c-9.008,0-16.312-7.301-16.312-16.31c0-9.008,7.303-16.312,16.312-16.312c9.009,0,16.311,7.304,16.311,16.312
				C68.75,60.893,61.448,68.193,52.439,68.193z"/>
			<path fill="#010202" d="M53.392,42.083h-2.03v10.311l9.141,5.713l1.076-1.721l-8.187-5.119V42.083z M53.392,42.083"/>
			<rect x="72.7" y="47.473" fill="#FADC01" width="3.723" height="8.631"/>
			<path fill="#010202" d="M77.22,57.18V46.484h-3.921c-0.867-3.399-2.545-6.478-4.812-9.018l0.026-0.006l-3.467-11.557H63.14
				v-8.664H41.612v8.664h-1.906L36.24,37.459l0.027,0.006c-3.409,3.821-5.485,8.855-5.485,14.365c0,5.511,2.077,10.544,5.485,14.366
				l-0.027,0.008l3.467,11.555h1.906v8.664H63.14V77.76h1.906l3.467-11.555l-0.026-0.008c2.268-2.541,3.945-5.621,4.812-9.018H77.22
				z M75.19,48.514v6.632h-1.473c0.166-1.079,0.254-2.187,0.254-3.315s-0.088-2.236-0.254-3.317H75.19z M43.644,19.269h17.466v6.634
				H43.644V19.269z M41.217,27.935h22.318l2.046,6.823c-3.654-2.833-8.235-4.521-13.204-4.521c-4.971,0-9.553,1.688-13.207,4.521
				L41.217,27.935z M61.109,84.393H43.644V77.76h17.466V84.393z M63.535,75.727H41.217l-2.045-6.822
				c3.653,2.834,8.235,4.52,13.206,4.52c4.968,0,9.549-1.686,13.206-4.52L63.535,75.727z M52.377,71.395
				c-10.789,0-19.565-8.775-19.565-19.563c0-10.788,8.777-19.563,19.565-19.563c10.788,0,19.563,8.776,19.563,19.563
				C71.94,62.619,63.165,71.395,52.377,71.395L52.377,71.395z M52.377,71.395"/>
			<path fill="#010202" d="M52.377,34.568c-9.52,0-17.263,7.744-17.263,17.263c0,9.519,7.743,17.263,17.263,17.263
				c9.518,0,17.261-7.744,17.261-17.263C69.639,42.312,61.896,34.568,52.377,34.568L52.377,34.568z M53.392,67.027V64.83h-2.03
				v2.197c-7.592-0.5-13.68-6.59-14.182-14.181h2.199v-2.032H37.18c0.502-7.59,6.59-13.679,14.182-14.181v2.2h2.03v-2.2
				c7.59,0.501,13.679,6.59,14.18,14.181h-2.197v2.032h2.197C67.071,60.438,60.982,66.527,53.392,67.027L53.392,67.027z
				 M53.392,67.027"/>
			<path fill="#010202" d="M59.43,40.992c-1.093-0.711-2.278-1.25-3.528-1.604l-0.552,1.955c1.052,0.297,2.051,0.752,2.971,1.35
				L59.43,40.992z M59.43,40.992"/>
			<path fill="#010202" d="M61.248,42.425l-1.394,1.477c1.7,1.604,2.819,3.66,3.239,5.945l2-0.367
				C64.595,46.769,63.265,44.328,61.248,42.425L61.248,42.425z M61.248,42.425"/>
		</g>
	</g>
</g>
</svg>
