<?xml version="1.0" encoding="utf-8"?>
<!-- Generator: Adobe Illustrator 16.0.4, SVG Export Plug-In . SVG Version: 6.00 Build 0)  -->
<!DOCTYPE svg PUBLIC "-//W3C//DTD SVG 1.1//EN" "http://www.w3.org/Graphics/SVG/1.1/DTD/svg11.dtd">
<svg version="1.1" xmlns="http://www.w3.org/2000/svg" xmlns:xlink="http://www.w3.org/1999/xlink" x="0px" y="0px" width="108px"
	 height="108px" viewBox="0 0 108 108" enable-background="new 0 0 108 108" xml:space="preserve">
<g id="Layer_1">
</g>
<g id="Layer_2">
	<g>
		<circle fill="#EBF3F3" stroke="#000000" stroke-miterlimit="10" cx="54" cy="54" r="53"/>
		<g>
			<polygon fill="#FFFFFF" points="83.455,29.228 83.455,63.644 24.229,63.644 24.229,29.548 			"/>
			<polyline fill="#010202" points="21.281,30.256 23.331,30.256 23.331,65.086 37.752,65.086 32.58,85.404 34.441,85.876 
				37.909,72.26 53.039,72.26 53.039,81.543 54.961,81.543 54.961,72.26 70.093,72.26 73.557,85.876 75.418,85.404 70.249,65.086 
				84.67,65.086 84.67,30.256 86.718,30.256 86.718,24.237 54.961,24.237 54.961,22.124 53.039,22.124 53.039,24.237 21.281,24.237 
							"/>
			<polygon fill="#EBF3F3" points="38.397,70.339 39.733,65.086 53.039,65.086 53.039,70.339 			"/>
			<polygon fill="#EBF3F3" points="69.603,70.339 54.961,70.339 54.961,65.086 68.267,65.086 			"/>
			<rect x="25.251" y="30.256" fill="#FFFFFF" width="57.495" height="32.911"/>
			<rect x="23.202" y="26.158" fill="#010202" width="61.595" height="2.177"/>
			<path fill="#010202" d="M84.797,28.335"/>
			<path fill="#3257A4" d="M37.264,59.684l8.028-8.028l4.61,4.61l21.682-21.681l-1.358-1.358L49.902,53.549l-4.61-4.61l-9.387,9.388
				L37.264,59.684z M37.264,59.684"/>
		</g>
	</g>
</g>
</svg>
