<svg viewBox="0 0 304 304" version="1.1" xmlns="http://www.w3.org/2000/svg" xmlns:xlink="http://www.w3.org/1999/xlink">
    <title>Group</title>
    <g id="Page-1" stroke="none" stroke-width="1" fill="none" fill-rule="evenodd">
        <g id="Untitled-6" transform="translate(2.000000, 2.000000)">
            <g id="Group">
                <circle id="Oval-2" stroke="#000000" stroke-width="3" fill="#FFFFFF" cx="150" cy="150" r="150"></circle>
                <ellipse id="Oval" fill="#FFFFFF" cx="147.5" cy="150.5" rx="54.5" ry="54.5"></ellipse>
                <path d="M147.5,89 C113.534,89 86,116.534 86,150.5 C86,184.466 113.534,212 147.5,212 C181.466,212 209,184.466 209,150.5 C209,116.534 181.466,89 147.5,89 L147.5,89 Z M147.5,198.689 C120.887,198.689 99.311,177.114 99.311,150.5 C99.311,123.886 120.887,102.311 147.5,102.311 C174.113,102.311 195.689,123.886 195.689,150.5 C195.689,177.114 174.113,198.689 147.5,198.689 L147.5,198.689 Z" id="Shape" fill="#EE3040"></path>
                <polygon id="Shape" fill="#000000" points="150 121 144 121 144 151.463 171.008 168.344 174.188 163.256 150 148.135"></polygon>
                <rect id="Rectangle-path" fill="#F9DC01" x="207" y="137" width="11" height="25.5"></rect>
                <path d="M220.2,166 L220.2,134.4 L208.62,134.4 C206.052,124.359 201.095,115.265 194.395,107.759 L194.473,107.738 L184.233,73.597 L178.6,73.597 L178.6,48 L115,48 L115,73.598 L109.367,73.598 L99.127,107.739 L99.205,107.76 C89.135,119.047 83,133.92 83,150.198 C83,166.481 89.135,181.354 99.205,192.639 L99.127,192.662 L109.369,226.801 L115,226.801 L115,252.401 L178.6,252.401 L178.6,226.801 L184.233,226.801 L194.475,192.662 L194.395,192.639 C201.094,185.133 206.051,176.039 208.62,166 L220.2,166 L220.2,166 Z M214.2,140.401 L214.2,160.001 L209.848,160.001 C210.342,156.806 210.6,153.532 210.6,150.198 C210.6,146.866 210.342,143.594 209.848,140.401 L214.2,140.401 L214.2,140.401 Z M121.001,54 L172.601,54 L172.601,73.598 L121.001,73.598 L121.001,54 L121.001,54 Z M113.833,79.598 L179.769,79.598 L185.816,99.756 C175.023,91.387 161.484,86.401 146.804,86.401 C132.118,86.401 118.581,91.387 107.786,99.756 L113.833,79.598 L113.833,79.598 Z M172.6,246.401 L121,246.401 L121,226.801 L172.6,226.801 L172.6,246.401 L172.6,246.401 Z M179.77,220.801 L113.832,220.801 L107.787,200.645 C118.58,209.012 132.117,214 146.803,214 C161.483,214 175.022,209.012 185.817,200.643 L179.77,220.801 L179.77,220.801 Z M146.804,208 C114.931,208 89.001,182.07 89.001,150.197 C89.001,118.326 114.931,92.4 146.804,92.4 C178.673,92.4 204.601,118.326 204.601,150.197 C204.6,182.071 178.673,208 146.804,208 L146.804,208 L146.804,208 Z" id="Shape" fill="#000000"></path>
                <path d="M147,99 C118.875,99 96,121.879 96,150 C96,178.125 118.875,201.002 147,201.002 C175.119,201.002 197.998,178.125 197.998,150 C197.998,121.878 175.119,99 147,99 L147,99 L147,99 Z M150,194.9 L150,188.402 L144,188.402 L144,194.9 C121.57,193.416 103.584,175.429 102.102,153.002 L108.598,153.002 L108.598,147 L102.102,147 C103.584,124.574 121.571,106.586 144,105.104 L144,111.604 L150,111.604 L150,105.104 C172.426,106.586 190.412,124.577 191.895,147 L185.399,147 L185.399,153.002 L191.895,153.002 C190.412,175.429 172.425,193.416 150,194.9 L150,194.9 L150,194.9 Z" id="Shape" fill="#000000"></path>
                <path d="M168.053,117.74 C164.83,115.638 161.324,114.045 157.633,113 L156,118.775 C159.107,119.654 162.061,120.996 164.777,122.765 L168.053,117.74 L168.053,117.74 Z" id="Shape" fill="#000000"></path>
                <path d="M173.117,122 L169,126.365 C174.021,131.103 177.332,137.177 178.572,143.927 L184.472,142.843 C183.001,134.83 179.074,127.621 173.117,122 L173.117,122 L173.117,122 Z" id="Shape" fill="#000000"></path>
            </g>
        </g>
    </g>
</svg>
