<?xml version="1.0" encoding="utf-8"?>
<!-- Generator: Adobe Illustrator 16.0.4, SVG Export Plug-In . SVG Version: 6.00 Build 0)  -->
<!DOCTYPE svg PUBLIC "-//W3C//DTD SVG 1.1//EN" "http://www.w3.org/Graphics/SVG/1.1/DTD/svg11.dtd">
<svg version="1.1" xmlns="http://www.w3.org/2000/svg" xmlns:xlink="http://www.w3.org/1999/xlink" x="0px" y="0px" width="108px"
	 height="108px" viewBox="0 0 108 108" enable-background="new 0 0 108 108" xml:space="preserve">
<g id="Layer_1">
</g>
<g id="Layer_2">
	<g>
		<circle fill="#EBF3F3" stroke="#000000" stroke-miterlimit="10" cx="54" cy="54" r="53"/>
		<g>
			<polygon fill="#FFFFFF" points="68.597,33.199 29.347,33.199 29.347,81.959 77.095,81.959 77.095,32.997 			"/>
			<polygon fill="#FADC01" points="52.767,52.439 79.335,25.737 84.971,31.104 58.199,57.865 			"/>
			<polygon fill="#E73141" points="79.274,25.544 82.287,22.516 87.922,27.884 84.902,30.904 			"/>
			<path fill="#010202" d="M89.417,28.249l-6.996-6.998L71.303,32.37H27.921v50.378h50.378V39.367L89.417,28.249z M57.965,57.125
				l-4.421-4.421l25.905-25.904l4.422,4.422L57.965,57.125z M52.679,54.414l3.597,3.598l-4.821,1.297L52.679,54.414z M86.843,28.249
				l-1.686,1.684l-4.422-4.421l1.686-1.685L86.843,28.249z M76.479,80.928H29.742V34.191h39.74l-4.978,4.977H34.658v1.82h28.025
				l-4.007,4.006H34.658v1.821h22.198l-4.006,4.006H34.658v1.821h16.586l-1.001,4.005H34.658v1.82h15.13l-0.851,3.404l9.382-2.527
				l0.877-0.877h12.365v-1.82H61.018l4.006-4.005h6.538v-1.821h-4.717l9.634-9.634V80.928z M76.479,80.928"/>
			<rect x="34.658" y="68.303" fill="#010202" width="36.903" height="1.82"/>
			<rect x="34.658" y="74.131" fill="#010202" width="36.903" height="1.82"/>
			<rect x="34.658" y="62.477" fill="#010202" width="36.903" height="1.82"/>
		</g>
	</g>
</g>
</svg>
