<svg viewBox="0 0 304 304" version="1.1" xmlns="http://www.w3.org/2000/svg" xmlns:xlink="http://www.w3.org/1999/xlink">
    <title>Group</title>
    <g id="Page-1" stroke="none" stroke-width="1" fill="none" fill-rule="evenodd">
        <g id="Untitled-7" transform="translate(2.000000, 2.000000)">
            <g id="Group">
                <circle id="Oval-2" stroke="#000000" stroke-width="3" fill="#FFFFFF" cx="150" cy="150" r="150"></circle>
                <polygon id="Shape" fill="#FFFFFF" points="243 79 243 186.5 58 186.5 58 80"></polygon>
                <path d="M252.4,63.6 L153.199,63.6 L153.199,57 L147.199,57 L147.199,63.6 L48,63.6 L48,82.401 L54.4,82.401 L54.4,191.199 L99.448,191.199 L83.293,254.66 L89.107,256.139 L99.935,213.601 L147.199,213.601 L147.199,242.601 L153.199,242.601 L153.199,213.601 L200.465,213.601 L211.293,256.139 L217.107,254.66 L200.953,191.199 L246,191.199 L246,82.401 L252.4,82.401 L252.4,63.6 L252.4,63.6 Z M101.463,207.6 L105.637,191.199 L147.199,191.199 L147.199,207.6 L101.463,207.6 L101.463,207.6 Z M198.937,207.6 L153.199,207.6 L153.199,191.199 L194.761,191.199 L198.937,207.6 L198.937,207.6 Z M239.999,185.198 L60.4,185.198 L60.4,82.401 L239.999,82.401 L239.999,185.198 L239.999,185.198 Z M246.4,76.401 L54,76.401 L54,69.6 L246.4,69.6 L246.4,76.401 L246.4,76.401 Z" id="Shape" fill="#000000"></path>
                <polygon id="Shape" fill="#405EAB" points="98.243 174.64 123.32 149.563 137.72 163.963 205.44 96.242 201.198 92 137.72 155.479 123.32 141.078 94 170.399"></polygon>
            </g>
        </g>
    </g>
</svg>
