<svg viewBox="0 0 304 304" version="1.1" xmlns="http://www.w3.org/2000/svg" xmlns:xlink="http://www.w3.org/1999/xlink">
    <title>Group</title>
    <g id="Page-1" stroke="none" stroke-width="1" fill="none" fill-rule="evenodd">
        <g id="Untitled-8" transform="translate(2.000000, 2.000000)">
            <g id="Group">
                <circle id="Oval-2" stroke="#000000" stroke-width="3" fill="#FFFFFF" cx="150" cy="150" r="150"></circle>
                <polygon id="Shape" fill="#FFFFFF" points="195.626931 82.6324153 73 82.6324153 73 234.968641 222.175097 234.968641 222.175097 82"></polygon>
                <polygon id="Shape" fill="#F9DC01" points="146 142.42477 229.00474 59 246.612811 75.7689599 162.974708 159.378619"></polygon>
                <polygon id="Shape" fill="#EE3040" points="229 58.4577844 238.411325 49 256.018449 65.7689599 246.581523 75.2020925"></polygon>
                <path d="M260.130031,66.8605191 L238.27046,45 L203.533132,79.7373281 L68,79.7373281 L68,237.130031 L225.392703,237.130031 L225.392703,101.596899 L260.130031,66.8605191 L260.130031,66.8605191 Z M161.866733,157.076879 L148.052204,143.264247 L228.983343,62.3331085 L242.797871,76.1466885 L161.866733,157.076879 L161.866733,157.076879 Z M145.34998,148.607065 L156.58744,159.844525 L141.528941,163.899758 L145.34998,148.607065 L145.34998,148.607065 Z M252.083092,66.8605191 L246.819918,72.122745 L233.00539,58.3101131 L238.27046,53.0450427 L252.083092,66.8605191 L252.083092,66.8605191 Z M219.70381,231.442087 L73.6888929,231.442087 L73.6888929,85.4271691 L197.844239,85.4271691 L182.294599,100.97681 L89.0479555,100.97681 L89.0479555,106.665703 L176.605706,106.665703 L164.09109,119.180319 L89.0489037,119.180319 L89.0489037,124.87016 L158.402197,124.87016 L145.885684,137.384776 L89.0489037,137.384776 L89.0489037,143.073669 L140.869029,143.073669 L137.741086,155.590181 L89.0489037,155.590181 L89.0489037,161.279074 L136.318863,161.279074 L133.661202,171.908771 L162.972274,164.018276 L165.711476,161.279074 L204.344748,161.279074 L204.344748,155.590181 L171.400369,155.590181 L183.916881,143.073669 L204.344748,143.073669 L204.344748,137.384776 L189.605774,137.384776 L219.70381,107.285792 L219.70381,231.442087 L219.70381,231.442087 Z" id="Shape" fill="#000000"></path>
                <rect id="Rectangle-path" fill="#000000" x="89" y="192" width="115.296792" height="5.68889288"></rect>
                <rect id="Rectangle-path" fill="#000000" x="89" y="211" width="115.296792" height="5.68889288"></rect>
                <rect id="Rectangle-path" fill="#000000" x="89" y="174" width="115.296792" height="5.68889288"></rect>
            </g>
        </g>
    </g>
</svg>
